# xmcd
#
# Track frame offsets:
#	150
#	14948
#	34464
#	47144
#	61914
#	75371
#	94200
#	111162
#	128959
#	150368
#	173885
#
# Disc length: 2511 seconds
#
# Revision: 0
# Processed by: cddbd v1.5.2PL0 Copyright (c) Steve Scherf et al.
# Submitted via: dBpowerAMP V4.0
#
DISCID=8e09cd0b
DTITLE=Soul Syndrome - real music for real people
DYEAR=2008
DGENRE=Soul
TTITLE0=give me the love
TTITLE1=bring me the funky
TTITLE2=evolution
TTITLE3=shake it baby
TTITLE4=the game
TTITLE5=let me
TTITLE6=you're the one
TTITLE7=free your mind
TTITLE8=everything you're
TTITLE9=abstrack project
TTITLE10=feeling down
EXTD=
EXTT0=
EXTT1=
EXTT2=
EXTT3=
EXTT4=
EXTT5=
EXTT6=
EXTT7=
EXTT8=
EXTT9=
EXTT10=
PLAYORDER=
